<svg id="Capa_1" enable-background="new 0 0 512 512" height="512" viewBox="0 0 512 512" width="512" xmlns="http://www.w3.org/2000/svg" xmlns:xlink="http://www.w3.org/1999/xlink"><linearGradient id="SVGID_1_" gradientUnits="userSpaceOnUse" x1="256" x2="256" y1="512" y2="0"><stop offset="0" stop-color="#addcff"/><stop offset=".5028" stop-color="#eaf6ff"/><stop offset="1" stop-color="#eaf6ff"/></linearGradient><linearGradient id="SVGID_2_" gradientUnits="userSpaceOnUse" x1="256" x2="256" y1="371.256" y2="140.744"><stop offset="0" stop-color="#00c0ff"/><stop offset="1" stop-color="#5558ff"/></linearGradient><g><g><g><circle cx="256" cy="256" fill="url(#SVGID_1_)" r="256"/></g></g><g><g><path d="m167.177 246.903h-35.53c-14.694 0-26.647 11.953-26.647 26.647v71.059c0 14.694 11.953 26.647 26.647 26.647h35.53c14.694 0 26.647-11.953 26.647-26.647v-71.059c-.001-14.694-11.953-26.647-26.647-26.647zm213.176 0h-35.53c-14.694 0-26.647 11.953-26.647 26.647v71.059c0 14.694 11.953 26.647 26.647 26.647h35.53c14.694 0 26.647-11.953 26.647-26.647v-71.059c0-14.694-11.953-26.647-26.647-26.647zm-187.007-27.436 57.293 43.396c1.587 1.206 3.469 1.804 5.361 1.804s3.773-.598 5.361-1.804l57.293-43.388c21.21-16.052 23.193-47.272 4.276-66.149-16.759-16.776-46.042-16.776-62.801 0l-4.129 4.12-4.129-4.12c-16.759-16.776-46.042-16.768-62.801-.009-18.939 18.92-16.907 50.118 4.276 66.15zm18.242 116.26h88.823v-53.294h-88.823z" fill="url(#SVGID_2_)"/></g></g></g></svg>